<svg width="682" height="101" viewBox="0 0 682 101" fill="none" xmlns="http://www.w3.org/2000/svg">
<g clip-path="url(#clip0_2616_30)">
<path d="M31 100.67H0L5 0.0200005H36L31 100.67Z" fill="#FAD02B"/>
<path d="M94.32 100.67H63.32L68.32 0.0200005H99.32L94.32 100.67Z" fill="#FAD02B"/>
<path d="M304.09 32.02V67.66H287.45V32.02H304.09ZM317.26 0.0200005H261.45L249.45 100.66H317.26V0.0200005Z" fill="#FAD02B"/>
<path d="M161.23 100.67H130.23L135.23 0.0200005H166.23L161.23 100.67Z" fill="#FAD02B"/>
<path d="M190.07 30.01H223.04L224.57 0.0100002H190.07V30.01Z" fill="#FAD02B"/>
<path d="M173.67 48.25L189.67 100.67H223.67L206.67 48.25H173.67Z" fill="#FAD02B"/>
<path d="M173.67 48.25L189.84 0.0100002H202.45L186.27 48.25H173.67Z" fill="#FAD02B"/>
<path d="M72.21 31.95L23.97 55.13V68.74L72.21 45.56V31.95Z" fill="#FAD02B"/>
<path d="M511.4 100.67H480.4L485.4 0.0200005H516.4L511.4 100.67Z" fill="#FAD02B"/>
<path d="M540.24 30.02H573.2L574.74 0.0200005H540.24V30.02Z" fill="#FAD02B"/>
<path d="M623.91 30H660.76V0H625.4L623.91 30Z" fill="#FAD02B"/>
<path d="M523.84 48.26L539.84 100.67H573.84L556.84 48.26H523.84Z" fill="#FAD02B"/>
<path d="M523.84 48.26L540.01 0.0200005H552.62L536.44 48.26H523.84Z" fill="#FAD02B"/>
<path d="M646.15 49.77L598.12 66.17V78.77L646.15 62.38V49.77Z" fill="#FAD02B"/>
<path d="M382.17 100.67H351.17L356.17 0.0200005H387.17L382.17 100.67Z" fill="#FAD02B"/>
<path d="M444.49 100.67H413.49L418.49 0.0200005H449.49L444.49 100.67Z" fill="#FAD02B"/>
<path d="M423.42 43.3H381.02V56.39H423.42V43.3Z" fill="#FAD02B"/>
<path d="M631.42 0L649.62 100.67H681.9L662.29 0H631.42Z" fill="#FAD02B"/>
<path d="M598.12 66.17L596.41 100.67H627.41L629.12 66.17H598.12Z" fill="#FAD02B"/>
</g>
<defs>
<clipPath id="clip0_2616_30">
<rect width="681.9" height="100.67" fill="white"/>
</clipPath>
</defs>
</svg>
