<svg width="432" height="432" viewBox="0 0 432 432" fill="none" xmlns="http://www.w3.org/2000/svg">
<g clip-path="url(#clip0_2301_24)">
<rect width="431.34" height="431.34" fill="#FAD02B"/>
<path d="M216.16 288.55C285.671 288.55 342.02 232.201 342.02 162.69C342.02 93.1795 285.671 36.83 216.16 36.83C146.649 36.83 90.3 93.1795 90.3 162.69C90.3 232.201 146.649 288.55 216.16 288.55Z" fill="white"/>
<path d="M287.25 169.383C287.25 130.075 255.462 98.21 216.25 98.21C177.038 98.21 145.25 130.075 145.25 169.383V295.037C145.25 334.345 177.038 366.21 216.25 366.21C255.462 366.21 287.25 334.345 287.25 295.037V169.383Z" fill="#AD9030"/>
<path d="M215.387 252H217.6C316.065 252 396 330.788 396 427.841V471H37V427.841C37 330.788 116.935 252 215.4 252H215.387Z" fill="#AD9030"/>
<path d="M269.25 203.2C269.25 255.49 245.518 294.21 216.25 294.21C186.982 294.21 163.25 258.231 163.25 203.2C163.25 173.88 269.239 173.88 269.239 203.2H269.25Z" fill="#FAF7C9"/>
</g>
<defs>
<clipPath id="clip0_2301_24">
<rect width="431.34" height="431.34" fill="white"/>
</clipPath>
</defs>
</svg>
