<svg width="432" height="432" viewBox="0 0 432 432" fill="none" xmlns="http://www.w3.org/2000/svg">
<g clip-path="url(#clip0_2326_226)">
<rect width="431.34" height="431.34" fill="black"/>
<rect width="431" height="431" fill="white" fill-opacity="0.1"/>
<path d="M216.16 288.55C285.671 288.55 342.02 232.201 342.02 162.69C342.02 93.1795 285.671 36.83 216.16 36.83C146.649 36.83 90.3 93.1795 90.3 162.69C90.3 232.201 146.649 288.55 216.16 288.55Z" fill="white" fill-opacity="0.05"/>
<path d="M216.25 98.21C255.462 98.21 287.25 130.075 287.25 169.383V265.926C351.147 292.689 396 355.14 396 427.841V471H37V427.841C37 355.331 81.6201 293.018 145.25 266.139V169.383C145.25 130.075 177.038 98.21 216.25 98.21Z" fill="black"/>
<path d="M269.25 203.2C269.25 255.49 245.518 294.21 216.25 294.21C186.982 294.21 163.25 258.231 163.25 203.2C163.25 173.88 269.239 173.88 269.239 203.2H269.25Z" fill="white" fill-opacity="0.1"/>
</g>
<defs>
<clipPath id="clip0_2326_226">
<rect width="431.34" height="431.34" fill="white"/>
</clipPath>
</defs>
</svg>
