<svg width="432" height="432" viewBox="0 0 432 432" fill="none" xmlns="http://www.w3.org/2000/svg">
<g clip-path="url(#clip0_2301_24)">
<path d="M360.19 0H71.15C31.8549 0 0 31.8549 0 71.15V360.19C0 399.485 31.8549 431.34 71.15 431.34H360.19C399.485 431.34 431.34 399.485 431.34 360.19V71.15C431.34 31.8549 399.485 0 360.19 0Z" fill="#FAD02B"/>
<path d="M216.16 292.55C285.671 292.55 342.02 236.201 342.02 166.69C342.02 97.1795 285.671 40.83 216.16 40.83C146.649 40.83 90.3 97.1795 90.3 166.69C90.3 236.201 146.649 292.55 216.16 292.55Z" fill="white"/>
<path d="M280.85 166.81C280.85 131.132 251.928 102.21 216.25 102.21C180.572 102.21 151.65 131.132 151.65 166.81V280.86C151.65 316.538 180.572 345.46 216.25 345.46C251.928 345.46 280.85 316.538 280.85 280.86V166.81Z" fill="#AD9030"/>
<path d="M214.61 233.64H216.38C295.13 233.64 359.06 297.57 359.06 376.32V431.34H71.94V376.32C71.94 297.57 135.87 233.64 214.62 233.64H214.61Z" fill="#AD9030"/>
<path d="M264.31 199.31C264.31 246.82 242.79 282 216.25 282C189.71 282 168.19 249.31 168.19 199.31C168.19 172.67 264.3 172.67 264.3 199.31H264.31Z" fill="#FAF7C9"/>
</g>
<defs>
<clipPath id="clip0_2301_24">
<rect width="431.34" height="431.34" fill="white"/>
</clipPath>
</defs>
</svg>
